<svg xmlns="http://www.w3.org/2000/svg" xmlns:xlink="http://www.w3.org/1999/xlink" viewBox="0,0,256,256" width="24px" height="24px" fill-rule="nonzero"><g fill="#1e8a00" fill-rule="nonzero" stroke="none" stroke-width="1" stroke-linecap="butt" stroke-linejoin="miter" stroke-miterlimit="10" stroke-dasharray="" stroke-dashoffset="0" font-family="none" font-weight="none" font-size="none" text-anchor="none" style="mix-blend-mode: normal"><g transform="scale(10.66667,10.66667)"><path d="M4.20703,2.79297l-1.41406,1.41406l2.28906,2.28906c-2.66684,2.14432 -3.92119,4.9201 -4.00195,5.10938l-0.16797,0.39453l0.16797,0.39453c0.133,0.311 3.34792,7.60547 10.91992,7.60547c2.06635,0 3.79721,-0.55046 5.23828,-1.34766l2.55469,2.55469l1.41406,-1.41406zM12,4c-1.211,0 -2.29997,0.20062 -3.29297,0.51563l1.64648,1.64648c0.521,-0.099 1.06548,-0.16211 1.64648,-0.16211c5.396,0 8.16763,4.58809 8.89063,5.99609c-0.294,0.563 -0.93827,1.65586 -1.94727,2.75586l1.42578,1.42578c1.68,-1.818 2.48578,-3.6322 2.55078,-3.7832l0.16797,-0.39453l-0.16797,-0.39453c-0.133,-0.311 -3.34792,-7.60547 -10.91992,-7.60547zM6.51172,7.92578l2.05078,2.05078c-0.35455,0.5925 -0.5625,1.28234 -0.5625,2.02344c0,2.206 1.794,4 4,4c0.7411,0 1.43094,-0.20795 2.02344,-0.5625l1.72461,1.72461c-1.0737,0.50912 -2.31974,0.83789 -3.74805,0.83789c-5.396,0 -8.16763,-4.58809 -8.89062,-5.99609c0.41562,-0.79596 1.53086,-2.64108 3.40234,-4.07812zM12.21289,8.02148l3.76563,3.76562c-0.109,-2.033 -1.73263,-3.65662 -3.76562,-3.76562zM10.07422,11.48828l2.4375,2.4375c-0.16377,0.04402 -0.33381,0.07422 -0.51172,0.07422c-1.103,0 -2,-0.897 -2,-2c0,-0.17791 0.0302,-0.34795 0.07422,-0.51172z"></path></g></g></svg>